<svg width="81" height="26" viewBox="0 0 81 26" fill="none" xmlns="http://www.w3.org/2000/svg">
<path d="M32.7919 25.6452L32.8076 23.2292C33.644 23.4152 34.6813 23.6163 35.2701 23.6163C36.1994 23.6163 36.4934 23.3372 36.4934 22.9345V22.6869C36.4934 22.3464 36.3539 22.1604 36.0442 22.0516L34.6655 21.5873C33.0394 21.0451 32.4979 20.3482 32.4979 18.6764V18.5211C32.4979 16.5694 33.5202 15.4856 35.8431 15.4856C36.5707 15.4856 37.5 15.5944 38.4136 15.7489L38.3828 18.1333C37.5308 17.978 36.4469 17.8393 35.9204 17.8393C35.3166 17.8393 35.0683 18.0868 35.0683 18.4588V18.6599C35.0683 18.9696 35.1921 19.1399 35.6721 19.3102L36.927 19.7129C38.4751 20.2087 39.0639 20.9978 39.0639 22.6547V22.9495C39.0639 24.9319 38.0108 26 35.3623 26C34.6963 26.0015 33.7055 25.8304 32.7919 25.6452Z" fill="#ED1C24"/>
<path d="M42.3167 15.6714H45.2899L48.1544 25.8145H45.4137L45.2044 24.7861C45.1099 24.3211 44.7004 23.9866 44.2263 23.9866H43.303C42.8282 23.9866 42.4195 24.3203 42.3249 24.7861L42.1157 25.8145H39.4522L42.3167 15.6714ZM44.6239 21.8811L43.7718 17.6846L42.9047 21.8811H44.6239Z" fill="#ED1C24"/>
<path d="M48.9296 15.6714H51.5001V19.7907L54.1328 15.6714H56.7655L53.8283 20.003C53.5553 20.4065 53.5605 20.9368 53.8418 21.3344L57.0138 25.8152H54.0098L51.5008 21.9907V25.8152H48.9304V15.6714H48.9296Z" fill="#ED1C24"/>
<path d="M57.8331 15.6714H60.4036V19.4344H61.3322C61.9652 19.4344 62.4783 18.9214 62.4783 18.2884V15.6714H65.0487V25.8145H62.4783V21.8031H60.4036V25.8145H57.8331V15.6714Z" fill="#ED1C24"/>
<path d="M68.4917 15.6714H72.5143V18.0566H70.0421C69.4743 18.0566 69.0145 18.5164 69.0145 19.0842V19.4809H72.2045V21.8504H69.0145V23.43H72.5143V25.8152H66.444V17.7191C66.444 16.5887 67.3606 15.6714 68.4917 15.6714Z" fill="#ED1C24"/>
<path d="M73.7533 15.6721H75.1994C76.1827 15.6721 77.0536 16.3074 77.3543 17.2435L78.5537 20.9833V15.6714H81.0004V25.8145H77.9806L76.2 20.504V25.816H73.7533V15.6721Z" fill="#ED1C24"/>
<path d="M25.681 20.9755C26.2023 20.9755 26.713 21.1172 27.1601 21.3858C27.4129 21.1375 27.6236 20.8502 27.7841 20.5337C28.1554 19.7821 28.3407 18.6143 28.3407 17.0287C28.3407 14.8482 28.0062 13.2671 27.3371 12.2868C26.668 11.3064 25.0457 10.0516 22.4699 8.52295C21.5721 7.99191 21.0268 7.53887 20.8348 7.16234C20.6338 6.78656 20.5333 6.22701 20.5333 5.48445C20.5333 4.9069 20.6225 4.47562 20.8018 4.19134C20.9668 3.91457 21.2698 3.75031 21.5916 3.76531C21.9119 3.76531 22.1414 3.87032 22.2787 4.08109C22.4167 4.29185 22.4849 4.78239 22.4849 5.55196V7.20134H27.8591V6.32227C27.8591 4.55362 27.6874 3.30102 27.3438 2.56296C27.0003 1.8249 26.299 1.2136 25.2414 0.728311C24.1831 0.242272 22.9027 0 21.3996 0C20.0255 0 18.8524 0.222019 17.8811 0.666806C16.9097 1.11159 16.2062 1.72739 15.7711 2.51571C15.3361 3.30402 15.1186 4.54987 15.1186 6.25401C15.1186 7.43611 15.2724 8.40744 15.5791 9.168C15.8859 9.92857 16.2737 10.5241 16.7402 10.9546C17.2075 11.3852 18.1601 12.0767 19.5987 13.0301C21.0373 13.9744 21.9404 14.648 22.3064 15.0507C22.6642 15.4543 22.8427 16.3108 22.8427 17.6212C22.8427 18.2167 22.749 18.6653 22.5615 18.9683C22.3739 19.2706 22.0874 19.4221 21.7026 19.4221C21.3179 19.4221 21.0493 19.3028 20.8986 19.0643C20.7478 18.8258 20.672 18.2903 20.6713 17.4562V14.7485H15.2971V16.2058C15.2971 17.874 15.4666 19.1611 15.8056 20.0679C15.9969 20.5667 16.2954 21.0167 16.6802 21.3873C18.0461 20.5689 19.8162 21.0122 20.6345 22.3781C20.7778 22.6166 20.8851 22.8746 20.9541 23.1447C21.2668 23.1717 21.5879 23.1882 21.9217 23.1882C22.2524 23.1882 22.5735 23.1732 22.8855 23.1447C23.214 21.868 24.3639 20.9762 25.681 20.9755Z" fill="#ED1C24"/>
<path d="M18.1579 21.9263C17.8939 21.9263 17.6329 21.9803 17.3906 22.0853C16.408 22.5098 15.9565 23.6507 16.381 24.6325C16.8056 25.6151 17.9464 26.0666 18.9282 25.6421C19.9108 25.2175 20.3624 24.0767 19.9378 23.0949C19.631 22.3853 18.9312 21.9263 18.1579 21.9263Z" fill="#ED1C24"/>
<path d="M26.4473 22.0843C25.4624 21.6613 24.3216 22.1166 23.8985 23.1014C23.795 23.3429 23.741 23.6032 23.741 23.8665C23.7403 24.9383 24.6089 25.8069 25.6807 25.8076C26.7525 25.8084 27.6211 24.9398 27.6218 23.868C27.6211 23.0924 27.1598 22.3911 26.4473 22.0843Z" fill="#ED1C24"/>
<path d="M11.8285 8.26221H0.760562C0.340528 8.26221 0 7.92169 0 7.50165C0 7.08162 0.340528 6.74109 0.760562 6.74109H11.8285C12.2485 6.74109 12.589 7.08162 12.589 7.50165C12.589 7.92169 12.2485 8.26221 11.8285 8.26221Z" fill="#ED1C24"/>
<path d="M11.8285 19.0648H0.760562C0.340528 19.0648 0 18.7243 0 18.3043C0 17.8842 0.340528 17.5437 0.760562 17.5437H11.8285C12.2485 17.5437 12.589 17.8842 12.589 18.3043C12.589 18.7243 12.2485 19.0648 11.8285 19.0648Z" fill="#ED1C24"/>
<path d="M11.8281 13.6642H5.06556C4.64552 13.6642 4.30499 13.3237 4.30499 12.9036C4.30499 12.4836 4.64552 12.1431 5.06556 12.1431H11.8274C12.2474 12.1431 12.5879 12.4836 12.5879 12.9036C12.5887 13.3229 12.2481 13.6642 11.8281 13.6642Z" fill="#ED1C24"/>
<path d="M62.834 5.00013H60.08V7.19931L62.354 7.20081C63.2368 7.20081 63.5465 7.46408 63.6545 8.09939L63.701 8.37841H41.1235C40.4725 8.37841 40.2715 8.16164 40.2715 7.37182V4.97388H37.8092V9.72552C37.8092 10.7786 37.5152 11.1971 36.8492 11.1971H35.6259C35.0379 11.1971 34.6809 10.8566 34.6809 10.1441V7.53684H32.2194V10.3136C32.2194 12.4812 33.2724 13.4413 35.1616 13.4413H37.3764C39.2035 13.4413 40.2415 11.8654 40.2415 10.5768H66.5353C66.5353 10.5768 66.4671 8.44891 66.3958 7.74311C66.2008 5.8252 64.9093 5.00013 62.834 5.00013Z" fill="#ED1C24"/>
<path d="M78.553 4.97366V7.26285C78.553 8.14567 78.367 8.40894 77.9335 8.40894C77.8322 8.40894 77.7325 8.38944 77.6395 8.35119V5.55946H75.1927V7.61238C75.1927 8.23118 74.9557 8.41044 74.724 8.41044C74.5094 8.41044 74.2499 8.22668 74.2499 7.61238V5.55946H71.816V8.37819H70.7321C70.0661 8.37819 69.8801 8.20793 69.8801 7.18559V0H67.4641V7.92965C67.4641 9.74105 68.3312 10.5774 69.6783 10.5774H71.645C72.3268 10.5774 72.8135 10.4071 73.3558 9.95782C73.8201 10.4071 74.4734 10.7634 75.1545 10.7634C75.8138 10.7634 76.6006 10.5001 76.9734 10.0043C77.3912 10.4994 78.073 10.7634 78.8628 10.7634C80.2564 10.7634 80.9997 9.80331 80.9997 8.17717V4.97366H78.553Z" fill="#ED1C24"/>
<path d="M36.2444 4.93745C36.1199 4.88345 35.9864 4.85645 35.8506 4.85645C35.2993 4.85645 34.8523 5.30273 34.8516 5.85403C34.8516 6.40532 35.2978 6.85236 35.8491 6.85311C36.4004 6.85311 36.8475 6.40682 36.8482 5.85553C36.8482 5.4565 36.6112 5.09572 36.2444 4.93745Z" fill="#ED1C24"/>
<path d="M63.7148 2.25876C63.5903 2.20475 63.4561 2.177 63.321 2.177C62.7697 2.177 62.3227 2.62329 62.322 3.17459C62.322 3.72588 62.7682 4.17292 63.3195 4.17367C63.8708 4.17367 64.3179 3.72738 64.3186 3.17608C64.3186 2.77705 64.0816 2.41627 63.7148 2.25876Z" fill="#ED1C24"/>
</svg>
